<?xml version="1.0" encoding="utf-8"?>
<!-- Generator: Adobe Illustrator 24.1.2, SVG Export Plug-In . SVG Version: 6.00 Build 0)  -->
<svg version="1.1" id="Layer_1" xmlns="http://www.w3.org/2000/svg" xmlns:xlink="http://www.w3.org/1999/xlink" x="0px" y="0px"
	 viewBox="0 0 640 480" style="enable-background:new 0 0 640 480;" xml:space="preserve">
<style type="text/css">
	.st0{fill:#FFFFFF;}
</style>
<g>
	<path class="st0" d="M132.1,278.3c-3.4-3-6.6-5.5-9.5-8.5c-1.3-1.4-2.4-3.6-2.4-5.4c-0.2-13.5-0.2-27,0-40.5c0-1.8,1.2-4.1,2.6-5.3
		c9.4-7.7,19-15.2,28.5-22.8c6.5-5.2,13.1-10.4,19.6-15.6c-7.5-1-14.6-1.1-21.7-0.9c-1.3,0-2.7,1.1-3.9,2
		c-13.3,10.3-26.7,20.5-39.8,31c-1.6,1.3-2.9,4.1-2.9,6.2c-0.2,16.8-0.2,33.7,0,50.5c0,2.2,1.2,4.9,2.8,6.4
		c8.9,8.2,18.1,16.2,27.4,24.4c13.7-12.2,26.8-25.1,41.3-36.2c10.1-7.7,13.8-16.6,11.8-28.5c-0.2-1.3-0.2-2.9-1-3.7
		c-3.4-3.3-7.1-6.4-11-9.8c-4.5,4-8.8,7.8-13.2,11.8c1.7,1.5,3,2.6,4.1,3.8c3.3,3.2,3.3,9.1-0.2,12.3
		C154.2,258.9,143.4,268.4,132.1,278.3z"/>
	<path class="st0" d="M144.5,299.8c8.6,0,15.7,0.1,22.8-0.1c1.3,0,2.8-1,3.9-1.9c13.5-10.3,26.9-20.7,40.3-31.2
		c1.4-1.1,2.7-3.5,2.7-5.3c0.2-17.3,0.2-34.7,0.1-52c0-1.5-0.4-3.5-1.4-4.5c-9.4-8.6-19-17.1-28.6-25.6c-1,0.8-1.7,1.2-2.4,1.7
		c-13.1,11.6-25.5,24.1-39.5,34.5c-10.3,7.7-13.1,16.6-11.5,28.2c0.2,1.3,0.1,3,0.9,3.7c3.5,3.4,7.3,6.5,11.1,9.8
		c4.6-4.2,8.7-7.9,12.8-11.7c-0.9-1-1.3-1.5-1.8-2c-6.5-5.9-6.6-9.9,0-15.8c3.6-3.2,7.2-6.4,10.8-9.6c6.6-5.8,13.2-11.6,19.9-17.6
		c2.8,2.4,5.1,4.9,7.8,6.8c3.5,2.5,4.5,5.5,4.4,9.8c-0.3,12-0.3,24,0,36c0.1,3.7-1.1,6.2-4,8.4c-8.9,6.8-17.6,13.7-26.3,20.7
		C159.6,287.8,152.6,293.4,144.5,299.8z"/>
	<path class="st0" d="M450.7,261.2c-2.2-1.3-4.4-2.2-6.2-3.6c-3-2.4-5.3-2.1-8.2,0.5c-4.1,3.6-9.2,3.4-14.2,2.2
		c-4.3-1.1-8-3-8.7-8.7c13.4,0,26.5,0,39.5,0c3-13.9-3.9-26-16.9-30.3c-13.3-4.4-29.3,1.7-34.7,13.4c-5.7,12.3-1.4,27.2,9.9,34.2
		C424.2,276.8,441,273.7,450.7,261.2z"/>
	<path class="st0" d="M296,246c-0.1,14.9,12.1,26.9,27.5,27c15.3,0.1,27.9-11.9,28-26.5c0.1-14.7-12.3-26.6-27.8-26.7
		C308.7,219.6,296.2,231.5,296,246z"/>
	<path class="st0" d="M270.2,271.5c5.2,0,9.6,0,14.1,0c0-11.7,0.5-23-0.1-34.3c-0.6-11.4-7.5-17.6-19-17.3
		c-4.8,0.1-9.5,2.2-14.3,3.4c-1.1-3.1-5.1-3.8-13.9-2c0,16.7,0,33.4,0,50.2c4.6,0,8.8,0,13.6,0c0-9.6-0.2-19,0.1-28.3
		c0.1-3,1.1-6.4,2.8-8.7c2.7-3.7,7.2-4,11.4-2.5c4,1.4,5.3,4.9,5.3,8.8C270.3,250.9,270.2,261.1,270.2,271.5z"/>
	<path class="st0" d="M515.4,234.7c-6.3-12-19.7-17.5-32.6-13.8c-12.2,3.5-20.7,14.9-19.9,26.6c0.9,12.6,10.6,23.5,22.4,25.1
		c14.3,2,25.6-3.5,29.6-14.7c-2.4-1-4.9-2-7.3-3.1c-2.5-1.1-4.2-1.1-6.4,1.4c-5.5,6.2-15,6.2-20.5,0.6c-5.7-5.8-5.7-15.6,0.1-21.1
		c5.8-5.6,14.2-4.9,20.4,1.2c1,1,3.2,1.8,4.6,1.4C509.1,237.6,512.1,236.1,515.4,234.7z"/>
	<path class="st0" d="M366.5,232.1c0,3.1,0,5.9,0,8.7c0.1,7.5,0.2,15,0.5,22.4c0.2,5,3.3,8.2,7.9,9c4.9,0.9,10.1,0.6,15.2,0.9
		c0-4.5,0-7.9,0-11.6c-3.7-0.8-9,0.5-9.3-5.2c-0.4-8.1-0.1-16.1-0.1-24.8c3.5,0,6.5,0,9.6,0c0-4.2,0-7.8,0-11.7
		c-3.3-0.1-6.4-0.3-10-0.4c0-4.6,0-8.9,0-13.2c-4.9,0-9.2,0-14.1,0c0,4.7,0,8.9,0,13.2c-2.2,0.2-3.8,0.3-5.6,0.4c0,3.9,0,7.7,0,11.6
		C362.4,231.7,364,231.9,366.5,232.1z"/>
	<path d="M132.1,278.3c11.3-9.9,22.1-19.4,32.8-28.9c3.5-3.1,3.5-9,0.2-12.3c-1.2-1.2-2.4-2.2-4.1-3.8c4.4-3.9,8.7-7.7,13.2-11.8
		c3.8,3.4,7.5,6.5,11,9.8c0.8,0.8,0.7,2.4,1,3.7c2,11.9-1.7,20.8-11.8,28.5c-14.5,11.1-27.6,24-41.3,36.2
		c-9.3-8.2-18.5-16.2-27.4-24.4c-1.6-1.5-2.8-4.2-2.8-6.4c-0.2-16.8-0.2-33.7,0-50.5c0-2.1,1.3-4.9,2.9-6.2
		c13.1-10.5,26.5-20.7,39.8-31c1.2-0.9,2.6-2,3.9-2c7.1-0.2,14.2-0.1,21.7,0.9c-6.5,5.2-13.1,10.4-19.6,15.6
		c-9.5,7.6-19.1,15-28.5,22.8c-1.4,1.2-2.6,3.5-2.6,5.3c-0.2,13.5-0.2,27,0,40.5c0,1.9,1.1,4.1,2.4,5.4
		C125.5,272.8,128.8,275.3,132.1,278.3z"/>
	<path d="M144.5,299.8c8.1-6.5,15.1-12,22-17.6c8.7-6.9,17.5-13.9,26.3-20.7c2.9-2.2,4.1-4.7,4-8.4c-0.2-12-0.3-24,0-36
		c0.1-4.2-0.9-7.3-4.4-9.8c-2.7-1.9-5-4.3-7.8-6.8c-6.7,5.9-13.3,11.7-19.9,17.6c-3.6,3.2-7.3,6.4-10.8,9.6c-6.6,5.9-6.5,9.9,0,15.8
		c0.5,0.4,0.9,1,1.8,2c-4.2,3.8-8.3,7.5-12.8,11.7c-3.8-3.3-7.6-6.4-11.1-9.8c-0.8-0.7-0.7-2.4-0.9-3.7
		c-1.6-11.6,1.3-20.5,11.5-28.2c14-10.4,26.4-22.9,39.5-34.5c0.6-0.5,1.3-1,2.4-1.7c9.6,8.5,19.2,17,28.6,25.6
		c1,0.9,1.4,2.9,1.4,4.5c0.1,17.3,0.1,34.7-0.1,52c0,1.8-1.2,4.1-2.7,5.3c-13.3,10.5-26.8,20.9-40.3,31.2c-1.1,0.9-2.6,1.8-3.9,1.9
		C160.2,299.9,153.1,299.8,144.5,299.8z"/>
	<path d="M450.7,261.2c-9.7,12.5-26.5,15.6-39.4,7.7c-11.3-6.9-15.7-21.9-9.9-34.2c5.4-11.7,21.3-17.8,34.7-13.4
		c13,4.3,19.9,16.4,16.9,30.3c-13,0-26.1,0-39.5,0c0.6,5.7,4.3,7.6,8.7,8.7c5,1.2,10.1,1.4,14.2-2.2c2.9-2.6,5.2-2.9,8.2-0.5
		C446.3,259,448.5,259.9,450.7,261.2z M438.5,241.6c-1.1-6.1-5.9-9.9-11.9-9.7c-7.2,0.3-12,4-12.4,9.7
		C422.3,241.6,430.4,241.6,438.5,241.6z"/>
	<path d="M296,246c0.1-14.5,12.6-26.4,27.7-26.3c15.5,0.1,27.9,12,27.8,26.7c-0.1,14.7-12.7,26.6-28,26.5
		C308.1,272.9,295.9,260.9,296,246z M337.7,246.3c-0.1-8.2-6.1-14.5-14-14.5c-7.8,0-14.1,6.4-14.2,14.4c-0.1,8.3,6.3,14.9,14.3,14.7
		C331.7,260.8,337.8,254.4,337.7,246.3z"/>
	<path d="M270.2,271.5c0-10.4,0.1-20.6,0-30.7c0-3.9-1.4-7.4-5.3-8.8c-4.2-1.5-8.6-1.2-11.4,2.5c-1.7,2.4-2.7,5.8-2.8,8.7
		c-0.4,9.3-0.1,18.6-0.1,28.3c-4.8,0-9,0-13.6,0c0-16.8,0-33.5,0-50.2c8.8-1.8,12.7-1.1,13.9,2c4.8-1.2,9.6-3.3,14.3-3.4
		c11.5-0.3,18.4,5.9,19,17.3c0.6,11.3,0.1,22.6,0.1,34.3C279.8,271.5,275.4,271.5,270.2,271.5z"/>
	<path d="M515.4,234.7c-3.4,1.4-6.3,3-9.5,3.8c-1.3,0.3-3.5-0.4-4.6-1.4c-6.3-6.2-14.6-6.8-20.4-1.2c-5.8,5.5-5.8,15.4-0.1,21.1
		c5.5,5.6,15,5.5,20.5-0.6c2.2-2.4,3.9-2.4,6.4-1.4c2.4,1.1,4.9,2,7.3,3.1c-4,11.2-15.3,16.7-29.6,14.7
		c-11.9-1.7-21.5-12.5-22.4-25.1c-0.9-11.7,7.7-23.1,19.9-26.6C495.7,217.2,509.2,222.7,515.4,234.7z"/>
	<path d="M366.5,232.1c-2.5-0.2-4.1-0.4-5.9-0.5c0-3.9,0-7.7,0-11.6c1.9-0.1,3.5-0.3,5.6-0.4c0-4.3,0-8.5,0-13.2c4.9,0,9.2,0,14.1,0
		c0,4.3,0,8.5,0,13.2c3.6,0.2,6.6,0.3,10,0.4c0,3.9,0,7.5,0,11.7c-3,0-6.1,0-9.6,0c0,8.6-0.3,16.7,0.1,24.8c0.3,5.7,5.6,4.4,9.3,5.2
		c0,3.6,0,7.1,0,11.6c-5.1-0.2-10.3,0-15.2-0.9c-4.6-0.8-7.7-4-7.9-9c-0.3-7.5-0.4-15-0.5-22.4C366.4,238,366.5,235.2,366.5,232.1z"
		/>
	<path class="st0" d="M438.5,241.6c-8.1,0-16.2,0-24.3,0c0.4-5.7,5.1-9.5,12.4-9.7C432.6,231.7,437.4,235.6,438.5,241.6z"/>
	<path class="st0" d="M337.7,246.3c0.1,8.1-6,14.5-13.9,14.6c-8,0.1-14.4-6.4-14.3-14.7c0.1-8,6.4-14.4,14.2-14.4
		C331.6,231.9,337.6,238.1,337.7,246.3z"/>
</g>
</svg>
